# xmcd CD database file
#
# Track frame offsets:
#	150
#	17305
#	32670
#	53201
#	70791
#	88420
#	103124
#	123600
#	137203
#	153216
#	169182
#	186249
#	206357
#	220740
#
# Disc length: 3123 seconds
#
# Revision: 2
# Processed by: cddbd v1.4PL0 Copyright (c) Steve Scherf et al.
# Submitted via: CdAid 2001.05.15.01
#
DISCID=c20c310e
DTITLE=Beth - Otra realidad
DYEAR=1900
DGENRE=
TTITLE0=Parando el tiempo
TTITLE1=La luz (It's summer in my heart)
TTITLE2=Estás
TTITLE3=Vestida de besos
TTITLE4=Quiéreme otra vez
TTITLE5=Otra realidad
TTITLE6=Hoy
TTITLE7=No quiero aceptar (Light years apart)
TTITLE8=Llévame contigo
TTITLE9=Eclipse
TTITLE10=Vuelvo a por ti
TTITLE11=Diario de dos
TTITLE12=Un mundo perfecto
TTITLE13=Dime
EXTD=FJSE
EXTT0=
EXTT1=
EXTT2=
EXTT3=
EXTT4=
EXTT5=
EXTT6=
EXTT7=
EXTT8=
EXTT9=
EXTT10=
EXTT11=
EXTT12=
EXTT13=
PLAYORDER=
